<svg width="52" height="52" viewBox="0 0 52 52" fill="none" xmlns="http://www.w3.org/2000/svg">
<mask id="mask0_44_454" style="mask-type:luminance" maskUnits="userSpaceOnUse" x="0" y="0" width="52" height="52">
<path d="M51.9949 0H0V52H51.9949V0Z" fill="white"/>
</mask>
<g mask="url(#mask0_44_454)">
<path d="M8.20445e-06 33.261V26C-0.00225568 23.1491 0.464009 20.3172 1.38018 17.6175C3.13196 12.4788 6.44778 8.01713 10.8628 4.85778C15.278 1.69843 20.571 -0.00019033 25.9999 1.59958e-08C32.8947 0.0013456 39.5066 2.74121 44.3815 7.61702C49.2563 12.4928 51.9949 19.1052 51.9949 26C51.9939 31.3615 50.3356 36.5917 47.2473 40.9744C44.159 45.3571 39.7914 48.6782 34.7428 50.4827C32.186 51.4076 29.4989 51.9215 26.7814 52.0051C26.5176 52.0051 26.2486 52.0051 25.9797 52.0051C25.7108 52.0051 25.4418 52.0051 25.178 52.0051L19.089 41.5624H25.9696C28.0104 41.5624 30.0311 41.1604 31.9165 40.3793C33.8018 39.5982 35.5149 38.4532 36.9577 37.0099C38.4005 35.5666 39.5449 33.8532 40.3254 31.9676C41.1058 30.0819 41.5073 28.061 41.5066 26.0202C41.5066 23.9799 41.1048 21.9595 40.3239 20.0744C39.5431 18.1894 38.3987 16.4767 36.956 15.034C35.5132 13.5911 33.8004 12.4467 31.9154 11.6659C30.0303 10.8851 28.0099 10.4832 25.9696 10.4832C22.4084 10.4785 18.9537 11.6965 16.1829 13.9335C13.4121 16.1704 11.4933 19.2907 10.7471 22.7729V33.2814L8.20445e-06 33.261Z" fill="url(#paint0_linear_44_454)"/>
<path d="M25.9974 33.6214C30.2038 33.6214 33.6138 30.2114 33.6138 26.005C33.6138 21.7986 30.2038 18.3887 25.9974 18.3887C21.7911 18.3887 18.3811 21.7986 18.3811 26.005C18.3811 30.2114 21.7911 33.6214 25.9974 33.6214Z" fill="url(#paint1_linear_44_454)"/>
<path d="M0.180344 51.9895H10.623V41.5469H0.180344V51.9895Z" fill="url(#paint2_linear_44_454)"/>
</g>
<defs>
<linearGradient id="paint0_linear_44_454" x1="25.9975" y1="0" x2="25.9975" y2="52.0051" gradientUnits="userSpaceOnUse">
<stop stop-color="#FC6075"/>
<stop offset="1" stop-color="#FF9B44"/>
</linearGradient>
<linearGradient id="paint1_linear_44_454" x1="25.9975" y1="18.3887" x2="25.9975" y2="33.6214" gradientUnits="userSpaceOnUse">
<stop stop-color="#FC6075"/>
<stop offset="1" stop-color="#FF9B44"/>
</linearGradient>
<linearGradient id="paint2_linear_44_454" x1="5.40166" y1="41.5469" x2="5.40166" y2="51.9895" gradientUnits="userSpaceOnUse">
<stop stop-color="#FC6075"/>
<stop offset="1" stop-color="#FF9B44"/>
</linearGradient>
</defs>
</svg>
