<svg width="20" height="20" viewBox="0 0 20 20" fill="none" xmlns="http://www.w3.org/2000/svg">
<path d="M14.5448 9.83347L14.5448 9.8335L14.5479 9.84117C14.5896 9.94261 14.5896 10.0564 14.5479 10.1578L14.5478 10.1578L14.5448 10.1655C14.5255 10.2155 14.4966 10.2613 14.4599 10.3003L10.297 14.4632L10.2958 14.4644C10.2571 14.5035 10.211 14.5345 10.1602 14.5556C10.1095 14.5768 10.055 14.5877 10 14.5877C9.94499 14.5877 9.89053 14.5768 9.83976 14.5556C9.78899 14.5345 9.7429 14.5035 9.70417 14.4644L9.70175 14.462C9.6627 14.4233 9.6317 14.3772 9.61055 14.3264C9.58939 14.2756 9.5785 14.2212 9.5785 14.1662C9.5785 14.1112 9.58939 14.0567 9.61055 14.0059C9.6317 13.9552 9.6627 13.9091 9.70175 13.8703L9.70251 13.8696L12.4525 11.1279L13.1664 10.4162H12.1583H5.83333C5.72283 10.4162 5.61685 10.3723 5.53871 10.2941C5.46057 10.216 5.41667 10.11 5.41667 9.9995C5.41667 9.889 5.46057 9.78302 5.53871 9.70488C5.61685 9.62674 5.72283 9.58284 5.83333 9.58284H12.1583H13.1664L12.4525 8.8711L9.70296 6.12988C9.70292 6.12984 9.70288 6.1298 9.70284 6.12976C9.62414 6.05099 9.57992 5.94419 9.57992 5.83284C9.57992 5.77767 9.59079 5.72305 9.6119 5.67208C9.63301 5.62111 9.66395 5.57481 9.70296 5.5358C9.78174 5.45702 9.88859 5.41276 10 4.99609C10.0552 5.41276 10.1098 5.42363 10.1608 5.44474C10.2117 5.46585 10.258 5.49679 10.297 5.5358L14.4599 9.6987C14.4966 9.73774 14.5255 9.78349 14.5448 9.83347Z" fill="black" stroke="white" stroke-width="0.833333"/>
</svg>
